<svg width="25" height="25" viewBox="0 0 25 25" fill="none" xmlns="http://www.w3.org/2000/svg">
<path d="M23.7162 19.6212C23.7162 20.0262 23.6262 20.4425 23.435 20.8475C23.2437 21.2525 22.9963 21.635 22.67 21.995C22.1188 22.6025 21.5112 23.0413 20.825 23.3225C20.15 23.6038 19.4188 23.75 18.6313 23.75C17.4838 23.75 16.2575 23.48 14.9637 22.9288C13.67 22.3775 12.3762 21.635 11.0938 20.7013C9.78662 19.7451 8.55315 18.6922 7.40375 17.5512C6.26611 16.406 5.21686 15.1762 4.265 13.8725C3.3425 12.59 2.6 11.3075 2.06 10.0363C1.52 8.75375 1.25 7.5275 1.25 6.3575C1.25 5.5925 1.385 4.86125 1.655 4.18625C1.925 3.5 2.3525 2.87 2.94875 2.3075C3.66875 1.59875 4.45625 1.25 5.28875 1.25C5.60375 1.25 5.91875 1.3175 6.2 1.4525C6.4925 1.5875 6.75125 1.79 6.95375 2.0825L9.56375 5.76125C9.76625 6.0425 9.9125 6.30125 10.0137 6.54875C10.115 6.785 10.1713 7.02125 10.1713 7.235C10.1713 7.505 10.0925 7.775 9.935 8.03375C9.78875 8.2925 9.575 8.5625 9.305 8.8325L8.45 9.72125C8.32625 9.845 8.27 9.99125 8.27 10.1713C8.27 10.2613 8.28125 10.34 8.30375 10.43C8.3375 10.52 8.37125 10.5875 8.39375 10.655C8.59625 11.0262 8.945 11.51 9.44 12.095C9.94625 12.68 10.4862 13.2763 11.0712 13.8725C11.6787 14.4688 12.2637 15.02 12.86 15.5262C13.445 16.0212 13.9287 16.3587 14.3112 16.5612C14.3675 16.5837 14.435 16.6175 14.5137 16.6512C14.6037 16.685 14.6937 16.6962 14.795 16.6962C14.9862 16.6962 15.1325 16.6288 15.2562 16.505L16.1113 15.6613C16.3925 15.38 16.6625 15.1662 16.9213 15.0312C17.18 14.8737 17.4387 14.795 17.72 14.795C17.9337 14.795 18.1588 14.84 18.4062 14.9413C18.6537 15.0425 18.9125 15.1888 19.1938 15.38L22.9175 18.0237C23.21 18.2262 23.4125 18.4625 23.5362 18.7437C23.6487 19.025 23.7162 19.3062 23.7162 19.6212V19.6212Z" stroke="black" stroke-width="1.5" stroke-miterlimit="10"/>
</svg>
